# xmcd
#
# Track frame offsets:
# 150
# 21355
# 42010
# 64117
# 86432
# 116710
# 142095
# 169562
# 198525
# 224957
#
# Disc length: 3339 seconds
#
# Revision: 3
# Processed by: cddbd v1.5PL3 Copyright (c) Steve Scherf et al.
# Submitted via: inCDius 2.0b9
#
DISCID=960d090a
DTITLE=Melvin Taylor and The Slack Band - Rendezvous With The Blues
DYEAR=2002
DGENRE=Blues
TTITLE0=Comin' Home Baby
TTITLE1=Help The Poor
TTITLE2=Rendezvous With The Blues
TTITLE3=I'm The Man Down There
TTITLE4=A Tribute To John Lee Hooker (Chill Out - The Healer)
TTITLE5=Help Me
TTITLE6=Five Women
TTITLE7=Blue Jean Blues
TTITLE8=Eclipse
TTITLE9=Black Queen
EXTD=ID3G:   0 YEAR: 2002
EXTT0=
EXTT1=
EXTT2=
EXTT3=
EXTT4=
EXTT5=
EXTT6=
EXTT7=
EXTT8=
EXTT9=
PLAYORDER=
